<?xml version="1.0" encoding="utf-8"?>
<!-- Generator: Adobe Illustrator 22.1.0, SVG Export Plug-In . SVG Version: 6.00 Build 0)  -->
<svg version="1.1" id="Layer_1" xmlns="http://www.w3.org/2000/svg" xmlns:xlink="http://www.w3.org/1999/xlink" x="0px" y="0px"
	 viewBox="0 0 196.7 58.2" style="enable-background:new 0 0 196.7 58.2;" xml:space="preserve">
<style type="text/css">
	.st0{fill:#454648;}
	.st1{fill:#E6BC51;}
	.st2{fill:#FFFFFF;}
</style>
<path class="st0" d="M38.4,45c0,2.6-1.3,3.9-4,3.9H21c-8,0-12-4.1-12-12.2V18.3c0-2.7,1.3-4,4-4h21.1c2.8,0,4.2,1.3,4.2,4
	c0,2.6-1.4,3.9-4.1,4l-17.2,0v5.3L29,27.5c2.7,0,4,1.4,4,4.1c0,2.6-1.3,3.9-4,3.9l-12,0v1.3c0,2.7,1.4,4.1,4.1,4.1l13.4,0
	C37.1,41,38.4,42.3,38.4,45z"/>
<path class="st0" d="M69.5,18.3L58.7,46.2c-0.6,1.6-1.5,2.5-2.5,2.6c-1,0.1-2,0.1-2.9-0.1c-0.9-0.2-1.7-1-2.5-2.5l-10.7-28
	c0-2.7,1.3-4,4-4c1.7,0,2.8,0.5,3.3,1.4c0.5,0.9,3,8,7.4,21.3c4.4-13.3,6.9-20.4,7.5-21.3c0.5-0.9,1.6-1.4,3.2-1.4
	C68.2,14.3,69.5,15.6,69.5,18.3z"/>
<path class="st0" d="M83.8,14.3h5.3c8,0,12,4,12,12v10.3c0,8.2-4,12.2-12,12.2h-5.5c-7.9,0-11.9-4-11.9-12V26.4
	C71.8,18.3,75.8,14.3,83.8,14.3z M83.7,22.4c-2.6,0-3.9,1.3-3.9,4v10.5c0,2.7,1.3,4.1,3.9,4.1h5.4c2.7,0,4-1.4,4-4.1V26.2
	c0-2.6-1.3-3.9-4-3.9H83.7z"/>
<path class="st0" d="M109.8,3.6c2.7,0,4,1.4,4,4.1v33.2c2.7,0,4,1.3,4,3.9c0,2.7-1.3,4-4,4.1l-4,0.1c-2.7,0-4-1.4-4-4V7.6
	C105.8,4.9,107.2,3.6,109.8,3.6z"/>
<path class="st0" d="M152.2,18.3v26.6c0,2.6-1.3,3.9-4,3.9l-13.4,0c-8,0-12-4.1-12-12.2V18.2c0-2.7,1.3-4,4-4c2.7,0,4,1.3,4,4v18.5
	c0,2.7,1.4,4.1,4.1,4.1h9.3V18.3c0-2.7,1.4-4,4.1-4C150.9,14.3,152.2,15.6,152.2,18.3z"/>
<path class="st1" d="M184.5,41.9l-8.2-10.4l8.2-10.4c1.8-2,1.7-3.9-0.3-5.7c-2-1.8-3.9-1.6-5.7,0.4l-7.2,9.2l-7.2-9.2
	c-1.8-2-3.7-2.2-5.7-0.4c-2,1.7-2,3.6-0.2,5.7l8.1,10.4L158,41.9c-1.8,2-1.7,3.9,0.3,5.8c2,1.7,3.9,1.6,5.6-0.4l7.3-9.3l7.3,9.3
	c1.8,2,3.6,2.1,5.7,0.4C186.2,45.8,186.3,43.9,184.5,41.9z"/>
</svg>
