<svg xmlns="http://www.w3.org/2000/svg" viewBox="0 0 80 90.281"><g transform="translate(0 -0.049)"><g transform="translate(0 66.543)"><path d="M8.006,137.689v-7.43c0-2.016-.806-2.995-2.419-2.995-1.785,0-2.649.979-2.649,2.995v7.487H0V124.788H2.995V126a4.187,4.187,0,0,1,3.4-1.5,4.339,4.339,0,0,1,3.283,1.267,5.465,5.465,0,0,1,1.267,4.032v7.948H8.006Z" transform="translate(0 -119.316)"/><path d="M32.279,137.6v-1.037a4.474,4.474,0,0,1-3.456,1.325,5.053,5.053,0,0,1-3.4-1.152,3.958,3.958,0,0,1-1.325-3.168,3.682,3.682,0,0,1,1.5-3.168,5.726,5.726,0,0,1,3.571-1.094,6.137,6.137,0,0,1,3.053.691v-.691a2.312,2.312,0,0,0-.634-1.785,2.874,2.874,0,0,0-1.9-.576,6.66,6.66,0,0,0-3.859,1.21l-.922-2.419a9.045,9.045,0,0,1,5.068-1.44,8.156,8.156,0,0,1,1.785.173,7.167,7.167,0,0,1,1.613.634,2.976,2.976,0,0,1,1.267,1.5A6.734,6.734,0,0,1,35.1,129.2v8.351H32.279Zm-2.88-2.3a3.722,3.722,0,0,0,2.88-1.267v-1.67a6.124,6.124,0,0,0-2.592-.518,3.587,3.587,0,0,0-1.9.4,1.413,1.413,0,0,0-.749,1.325,1.61,1.61,0,0,0,.634,1.267A2.7,2.7,0,0,0,29.4,135.3Z" transform="translate(-10.22 -119.232)"/><path d="M52.5,134.161c-2.016,0-2.995-1.094-2.995-3.341v-7.372H47.6v-2.592h1.9V116.94L52.5,115.5v5.356h2.995v2.592H52.438v6.8c0,.806.346,1.267,1.094,1.267a4,4,0,0,0,2.016-.576l-.346,2.649A5.69,5.69,0,0,1,52.5,134.161Z" transform="translate(-20.185 -115.5)"/><path d="M72.879,137.6v-1.037a4.473,4.473,0,0,1-3.456,1.325,5.053,5.053,0,0,1-3.4-1.152,3.958,3.958,0,0,1-1.325-3.168,3.682,3.682,0,0,1,1.5-3.168,5.726,5.726,0,0,1,3.571-1.094,6.137,6.137,0,0,1,3.053.691v-.691a2.312,2.312,0,0,0-.634-1.785,2.874,2.874,0,0,0-1.9-.576,6.66,6.66,0,0,0-3.859,1.21l-.922-2.419a9.045,9.045,0,0,1,5.068-1.44,8.156,8.156,0,0,1,1.785.173,7.167,7.167,0,0,1,1.613.634,2.976,2.976,0,0,1,1.267,1.5A6.734,6.734,0,0,1,75.7,129.2v8.351H72.879ZM70,135.3a3.722,3.722,0,0,0,2.88-1.267v-1.67a6.124,6.124,0,0,0-2.592-.518,3.587,3.587,0,0,0-1.9.4,1.413,1.413,0,0,0-.749,1.325,1.61,1.61,0,0,0,.634,1.267A2.938,2.938,0,0,0,70,135.3Z" transform="translate(-27.436 -119.232)"/><path d="M90.3,133.915V116.982l2.995-1.382v18.315Z" transform="translate(-38.291 -115.542)"/><path d="M103.853,144.937a1.808,1.808,0,0,1-2.534,0,1.67,1.67,0,0,1,0-2.419,1.808,1.808,0,0,1,2.534,0,1.67,1.67,0,0,1,0,2.419Z" transform="translate(-42.744 -126.737)"/><path d="M108.337,139.5l-1.037-1.67a5.043,5.043,0,0,0,2.592-.979,2.508,2.508,0,0,0,.749-1.9v-13.88h2.189v13.074a5.439,5.439,0,0,1-.979,3.513A5.127,5.127,0,0,1,108.337,139.5Zm4.377-21.138a1.382,1.382,0,0,1-2.361-.979,1.186,1.186,0,0,1,.4-.979,1.391,1.391,0,0,1,1.958,0,1.349,1.349,0,0,1,.4.979A1.5,1.5,0,0,1,112.714,118.361Z" transform="translate(-45.5 -115.712)"/><path d="M127.465,137.935a6.108,6.108,0,0,1-2.649-.576,5.119,5.119,0,0,1-2.016-1.613l1.555-1.325a4.3,4.3,0,0,0,3.168,1.555,2.954,2.954,0,0,0,1.728-.4,1.3,1.3,0,0,0,.634-1.21,1.685,1.685,0,0,0-.461-1.094,3.7,3.7,0,0,0-.979-.749c-.346-.173-.864-.346-1.5-.634a9.545,9.545,0,0,1-2.995-1.67,3.137,3.137,0,0,1-1.037-2.419,2.905,2.905,0,0,1,1.209-2.477,4.872,4.872,0,0,1,3.11-.922,5.418,5.418,0,0,1,4.377,1.958l-1.5,1.267a3.926,3.926,0,0,0-2.88-1.267,2.5,2.5,0,0,0-1.555.4,1.156,1.156,0,0,0-.576,1.037,1.533,1.533,0,0,0,.173.691,1.425,1.425,0,0,0,.691.576,5.181,5.181,0,0,0,.806.4c.173.115.576.23,1.094.461a9.644,9.644,0,0,1,3.11,1.67,3.421,3.421,0,0,1,1.094,2.649,3.157,3.157,0,0,1-1.267,2.707A5.022,5.022,0,0,1,127.465,137.935Z" transform="translate(-52.073 -119.274)"/></g><g transform="translate(10.668 0.049)"><g transform="translate(40.246 20.13)"><path d="M96.867,35.461,92.432,35A22.934,22.934,0,0,1,88.4,72.264l1.555,1.67-.058.806a25.839,25.839,0,0,0,13.132-22.52A25.566,25.566,0,0,0,96.867,35.461Z" transform="translate(-88.4 -35)"/></g><path d="M31.86,71.4l2.361-1.728a22.889,22.889,0,0,1-.576-32.657L29.9,36.9A25.769,25.769,0,0,0,31.86,71.4Z" transform="translate(-20.93 -15.676)"/><g transform="translate(15.399)"><path d="M63.368,20.006a1.787,1.787,0,0,1-1.267-.518L45.8,3.189a1.77,1.77,0,0,1-.4-1.958A1.678,1.678,0,0,1,47.011.078a17.216,17.216,0,0,1,18.2,18.258,1.994,1.994,0,0,1-1.152,1.613C63.828,19.949,63.6,20.006,63.368,20.006ZM48.8,2.555l13.88,13.88a14.789,14.789,0,0,0-4.262-9.618A15.209,15.209,0,0,0,48.8,2.555Z" transform="translate(-45.259 -0.049)"/></g><g transform="translate(27.518 31.188)"><path d="M74.306,56.677,66.761,58.75,66.3,56.273,73.845,54.2Z" transform="translate(-66.3 -54.2)"/></g><g transform="translate(28.094 39.137)"><path d="M76.63,70.477,67.761,72.9,67.3,70.419,76.112,68Z" transform="translate(-67.3 -68)"/></g><g transform="translate(28.396 47.687)"><rect width="9.849" height="2.534" transform="translate(0 2.197) rotate(-12.891)"/></g><g transform="translate(31.461 12.059)"><path d="M98.865,32.226,74.79,28.77a2.025,2.025,0,0,1-1.555-1.325,1.842,1.842,0,0,1,.576-1.958,17.82,17.82,0,0,1,26.9,3.8,1.831,1.831,0,0,1,0,2.016A1.872,1.872,0,0,1,98.865,32.226Zm-21.2-5.99,19.122,2.707a14.845,14.845,0,0,0-9.042-4.9A15.384,15.384,0,0,0,77.67,26.236Z" transform="translate(-73.147 -20.987)"/></g><g transform="translate(32.858 3.008)"><path d="M77.2,19.169a2.046,2.046,0,0,1-.576-.115,1.625,1.625,0,0,1-1.037-1.44A11.669,11.669,0,0,1,87.913,5.288,1.784,1.784,0,0,1,89.3,6.382,1.728,1.728,0,0,1,88.95,8.11l-10.6,10.54A1.629,1.629,0,0,1,77.2,19.169ZM85.437,8a9,9,0,0,0-4.665,2.477A9.222,9.222,0,0,0,78.3,15.137Z" transform="translate(-75.572 -5.272)"/></g><g transform="translate(11.621 52.787)"><path d="M43.423,96.423H40.37a1.671,1.671,0,0,0-1.67-1.67V91.7A4.671,4.671,0,0,1,43.423,96.423Z" transform="translate(-38.7 -91.7)"/><g transform="translate(1.728 4.723)"><g transform="translate(4.723)"><path d="M49.9,104.623V101.57a1.671,1.671,0,0,0,1.67-1.67h3.053A4.744,4.744,0,0,1,49.9,104.623Z" transform="translate(-49.9 -99.9)"/></g><g transform="translate(0 0)"><path d="M46.423,104.623A4.744,4.744,0,0,1,41.7,99.9h3.053a1.671,1.671,0,0,0,1.67,1.67Z" transform="translate(-41.7 -99.9)"/></g></g><g transform="translate(8.121)"><g transform="translate(6.451 4.723)"><g transform="translate(4.723)"><path d="M72.2,104.623V101.57a1.671,1.671,0,0,0,1.67-1.67h3.053A4.744,4.744,0,0,1,72.2,104.623Z" transform="translate(-72.2 -99.9)"/></g><g transform="translate(0 0)"><path d="M68.723,104.623A4.744,4.744,0,0,1,64,99.9h3.053a1.671,1.671,0,0,0,1.67,1.67Z" transform="translate(-64 -99.9)"/></g></g><g transform="translate(0 0)"><path d="M55.853,96.423H52.8A4.744,4.744,0,0,1,57.523,91.7v3.053A1.636,1.636,0,0,0,55.853,96.423Z" transform="translate(-52.8 -91.7)"/></g><g transform="translate(4.723)"><path d="M65.723,96.423H62.67A1.671,1.671,0,0,0,61,94.753V91.7A4.707,4.707,0,0,1,65.723,96.423Z" transform="translate(-61 -91.7)"/></g></g><g transform="translate(20.965)"><g transform="translate(0 0)"><path d="M78.153,96.423H75.1A4.744,4.744,0,0,1,79.823,91.7v3.053A1.636,1.636,0,0,0,78.153,96.423Z" transform="translate(-75.1 -91.7)"/></g><g transform="translate(4.723)"><path d="M88.023,96.423H84.97a1.671,1.671,0,0,0-1.67-1.67V91.7A4.707,4.707,0,0,1,88.023,96.423Z" transform="translate(-83.3 -91.7)"/></g><g transform="translate(6.393 4.723)"><path d="M90.923,104.623A4.744,4.744,0,0,1,86.2,99.9h3.053a1.671,1.671,0,0,0,1.67,1.67v3.053Z" transform="translate(-86.2 -99.9)"/></g></g></g><g transform="translate(10.066 52.729)"><circle cx="1.555" cy="1.555" r="1.555"/></g><g transform="translate(4.825 52.729)"><circle cx="1.555" cy="1.555" r="1.555"/></g><g transform="translate(42.147 59.122)"><circle cx="1.555" cy="1.555" r="1.555"/></g><g transform="translate(32.817 18.633)"><path d="M81.432,44.265a5.932,5.932,0,1,1,5.932-5.932A5.924,5.924,0,0,1,81.432,44.265Zm0-9.33a3.4,3.4,0,0,0-3.4,3.4,3.442,3.442,0,0,0,3.4,3.4,3.4,3.4,0,0,0,0-6.8Z" transform="translate(-75.5 -32.4)"/></g><g transform="translate(19.454 18.633)"><path d="M58.232,44.265a5.932,5.932,0,1,1,5.932-5.932A5.924,5.924,0,0,1,58.232,44.265Zm0-9.33a3.4,3.4,0,0,0-3.4,3.4,3.442,3.442,0,0,0,3.4,3.4,3.4,3.4,0,0,0,3.4-3.4A3.442,3.442,0,0,0,58.232,34.934Z" transform="translate(-52.3 -32.4)"/></g><g transform="translate(26.539 26.12)"><path d="M65.291,48.453l-.691-.058V77.538h2.534V45.4Z" transform="translate(-64.6 -45.4)"/></g><path d="M40.05,31.585l3.4-2.131H22.138a15.969,15.969,0,0,1,10.943-4.32,16.226,16.226,0,0,1,10.713,4.089l.576-.4L47.307,31.3c.058-.115.115-.173.173-.288a1.789,1.789,0,0,0-.23-1.843,18.57,18.57,0,0,0-28.337,0,1.774,1.774,0,0,0-.23,1.843,1.64,1.64,0,0,0,1.555.979H41.029Z" transform="translate(-18.522 -9.612)"/><g transform="translate(33.911 18.229)"><path d="M83.229,69.745a56.38,56.38,0,0,1-2.361-14.86l-.173-7.43L79.6,47.168,77.7,44l.288,10.943a59.672,59.672,0,0,0,2.477,15.608l.922,3.053,2.765-.806Z" transform="translate(-77.527 -36.916)"/><path d="M78.034,34.868l2.3-.691L80.28,31.7l-2.88.058.115,5.932Z" transform="translate(-77.4 -31.7)"/></g><path d="M59.671,23.107h.23L56.676,20.4A25.56,25.56,0,0,0,47,23.568L51.492,24.6A23.964,23.964,0,0,1,59.671,23.107Z" transform="translate(-30.598 -8.679)"/></g></g></svg>