<svg xmlns="http://www.w3.org/2000/svg" viewBox="0 0 26.992 28.315"><g transform="translate(18.312 9.159)"><path d="M92.252,35.21,90.234,35A10.435,10.435,0,0,1,88.4,51.955l.708.76-.026.367a11.757,11.757,0,0,0,5.975-10.246A11.632,11.632,0,0,0,92.252,35.21Z" transform="translate(-88.4 -35)"/></g><path d="M27.685,52.6l1.074-.786A10.414,10.414,0,0,1,28.5,36.952l-1.7-.052a11.725,11.725,0,0,0,.891,15.7Z" transform="translate(-22.712 -27.243)"/><g transform="translate(7.007)"><path d="M53.5,9.13a.813.813,0,0,1-.577-.236L45.506,1.477a.806.806,0,0,1-.183-.891.763.763,0,0,1,.734-.524A7.833,7.833,0,0,1,54.337,8.37a.907.907,0,0,1-.524.734C53.708,9.1,53.6,9.13,53.5,9.13Zm-6.63-7.94L53.184,7.5a6.729,6.729,0,0,0-1.939-4.376A6.92,6.92,0,0,0,46.868,1.189Z" transform="translate(-45.259 -0.049)"/></g><g transform="translate(12.52 14.191)"><path d="M69.943,55.327l-3.433.943-.21-1.127,3.433-.943Z" transform="translate(-66.3 -54.2)"/></g><g transform="translate(12.782 17.807)"><path d="M71.545,69.127l-4.036,1.1L67.3,69.1,71.309,68Z" transform="translate(-67.3 -68)"/></g><g transform="translate(12.92 21.697)"><rect width="4.481" height="1.153" transform="translate(0 1) rotate(-12.891)"/></g><g transform="translate(14.315 5.487)"><path d="M84.848,26.1,73.894,24.528a.921.921,0,0,1-.708-.6.838.838,0,0,1,.262-.891,8.108,8.108,0,0,1,12.238,1.73.833.833,0,0,1,0,.917A.852.852,0,0,1,84.848,26.1ZM75.2,23.375l8.7,1.232a6.755,6.755,0,0,0-4.114-2.227A7,7,0,0,0,75.2,23.375Z" transform="translate(-73.147 -20.987)"/></g><g transform="translate(14.95 1.369)"><path d="M76.313,11.595a.931.931,0,0,1-.262-.052.739.739,0,0,1-.472-.655,5.309,5.309,0,0,1,5.608-5.608.812.812,0,0,1,.629.5.786.786,0,0,1-.157.786l-4.822,4.8A.741.741,0,0,1,76.313,11.595ZM80.06,6.511a4.093,4.093,0,0,0-2.123,1.127A4.2,4.2,0,0,0,76.811,9.76Z" transform="translate(-75.572 -5.272)"/></g><g transform="translate(5.288 24.018)"><path d="M40.849,93.849H39.46a.761.761,0,0,0-.76-.76V91.7A2.125,2.125,0,0,1,40.849,93.849Z" transform="translate(-38.7 -91.7)"/><g transform="translate(0.786 2.149)"><g transform="translate(2.149)"><path d="M49.9,102.049V100.66a.76.76,0,0,0,.76-.76h1.389A2.159,2.159,0,0,1,49.9,102.049Z" transform="translate(-49.9 -99.9)"/></g><g transform="translate(0 0)"><path d="M43.849,102.049A2.159,2.159,0,0,1,41.7,99.9h1.389a.761.761,0,0,0,.76.76Z" transform="translate(-41.7 -99.9)"/></g></g><g transform="translate(3.695)"><g transform="translate(2.935 2.149)"><g transform="translate(2.149)"><path d="M72.2,102.049V100.66a.761.761,0,0,0,.76-.76h1.389A2.159,2.159,0,0,1,72.2,102.049Z" transform="translate(-72.2 -99.9)"/></g><g transform="translate(0 0)"><path d="M66.149,102.049A2.159,2.159,0,0,1,64,99.9h1.389a.761.761,0,0,0,.76.76Z" transform="translate(-64 -99.9)"/></g></g><g transform="translate(0 0)"><path d="M54.189,93.849H52.8A2.159,2.159,0,0,1,54.949,91.7v1.389A.744.744,0,0,0,54.189,93.849Z" transform="translate(-52.8 -91.7)"/></g><g transform="translate(2.149)"><path d="M63.149,93.849H61.76a.761.761,0,0,0-.76-.76V91.7A2.142,2.142,0,0,1,63.149,93.849Z" transform="translate(-61 -91.7)"/></g></g><g transform="translate(9.539)"><g transform="translate(0 0)"><path d="M76.489,93.849H75.1A2.159,2.159,0,0,1,77.249,91.7v1.389A.744.744,0,0,0,76.489,93.849Z" transform="translate(-75.1 -91.7)"/></g><g transform="translate(2.149)"><path d="M85.449,93.849H84.06a.761.761,0,0,0-.76-.76V91.7A2.142,2.142,0,0,1,85.449,93.849Z" transform="translate(-83.3 -91.7)"/></g><g transform="translate(2.909 2.149)"><path d="M88.349,102.049A2.159,2.159,0,0,1,86.2,99.9h1.389a.761.761,0,0,0,.76.76v1.389Z" transform="translate(-86.2 -99.9)"/></g></g></g><g transform="translate(4.58 23.991)"><circle cx="0.708" cy="0.708" r="0.708"/></g><g transform="translate(2.195 23.991)"><circle cx="0.708" cy="0.708" r="0.708"/></g><g transform="translate(19.177 26.9)"><circle cx="0.708" cy="0.708" r="0.708"/></g><g transform="translate(14.931 8.478)"><path d="M78.2,37.8a2.7,2.7,0,1,1,2.7-2.7A2.7,2.7,0,0,1,78.2,37.8Zm0-4.245A1.549,1.549,0,0,0,76.653,35.1,1.566,1.566,0,0,0,78.2,36.645a1.546,1.546,0,1,0,0-3.092Z" transform="translate(-75.5 -32.4)"/></g><g transform="translate(8.852 8.478)"><path d="M55,37.8a2.7,2.7,0,1,1,2.7-2.7A2.7,2.7,0,0,1,55,37.8Zm0-4.245A1.549,1.549,0,0,0,53.453,35.1,1.566,1.566,0,0,0,55,36.645,1.549,1.549,0,0,0,56.545,35.1,1.566,1.566,0,0,0,55,33.553Z" transform="translate(-52.3 -32.4)"/></g><g transform="translate(12.075 11.884)"><path d="M64.914,46.789l-.314-.026v13.26h1.153V45.4Z" transform="translate(-64.6 -45.4)"/></g><path d="M28.317,26.688l1.546-.97h-9.7a7.266,7.266,0,0,1,4.979-1.965,7.383,7.383,0,0,1,4.874,1.861l.262-.183,1.336,1.127c.026-.052.052-.079.079-.131a.814.814,0,0,0-.1-.839,8.449,8.449,0,0,0-12.893,0,.807.807,0,0,0-.1.839.746.746,0,0,0,.708.445h9.46Z" transform="translate(-18.522 -16.69)"/><g transform="translate(15.429 8.294)"><path d="M80.216,55.714a25.653,25.653,0,0,1-1.074-6.761l-.079-3.381-.5-.131L77.7,44l.131,4.979a27.15,27.15,0,0,0,1.127,7.1l.419,1.389,1.258-.367Z" transform="translate(-77.621 -40.777)"/><path d="M77.688,33.141l1.048-.314L78.71,31.7l-1.31.026.052,2.7Z" transform="translate(-77.4 -31.7)"/></g><path d="M52.765,21.632h.1L51.4,20.4A11.629,11.629,0,0,0,47,21.841l2.044.472A10.9,10.9,0,0,1,52.765,21.632Z" transform="translate(-39.537 -15.067)"/></svg>