<?xml version="1.0" encoding="utf-8"?>
<!-- Generator: Adobe Illustrator 22.1.0, SVG Export Plug-In . SVG Version: 6.00 Build 0)  -->
<svg version="1.1" xmlns="http://www.w3.org/2000/svg" xmlns:xlink="http://www.w3.org/1999/xlink" x="0px" y="0px"
	 viewBox="0 0 240 240" style="enable-background:new 0 0 240 240;" xml:space="preserve">
<style type="text/css">
	.st0{fill:#FFFFFF;}
</style>
<g id="Camada_2">
</g>
<g id="Camada_1">
	<path class="st0" d="M120,0C53.7,0,0,53.7,0,120s53.7,120,120,120s120-53.7,120-120S186.3,0,120,0z M179,82.3L159.3,175
		c-1.4,6.6-5.4,8.2-10.9,5.1l-30-22.2L104,172c-1.7,1.6-3,3-6,3c-3.9,0-3.2-1.5-4.6-5.2l-10.2-33.6L53.6,127c-6.4-2-6.5-6.4,1.4-9.5
		l115.6-44.6C175.9,70.5,181,74.2,179,82.3z"/>
</g>
</svg>
