<svg xmlns="http://www.w3.org/2000/svg" viewBox="0 0 321.462 70.428"><defs><style>.a{fill:#eb6582;}</style></defs><g transform="translate(47.528)"><path class="a" d="M57.214,35.214H39.931A17.887,17.887,0,0,0,22,17.283V0A35.22,35.22,0,0,1,57.214,35.214Z" transform="translate(-22)"/><g transform="translate(17.931 35.214)"><g transform="translate(35.214)"><path class="a" d="M46.6,51.514V34.231A17.887,17.887,0,0,0,64.531,16.3H81.814A35.22,35.22,0,0,1,46.6,51.514Z" transform="translate(-46.6 -16.3)"/></g><path class="a" d="M65.514,51.514A35.22,35.22,0,0,1,30.3,16.3H47.583A17.887,17.887,0,0,0,65.514,34.231Z" transform="translate(-30.3 -16.3)"/></g><g transform="translate(71.076)"><g transform="translate(52.929 35.214)"><g transform="translate(35.214)"><path class="a" d="M95.7,51.514V34.231A17.887,17.887,0,0,0,113.631,16.3h17.283A35.22,35.22,0,0,1,95.7,51.514Z" transform="translate(-95.7 -16.3)"/></g><path class="a" d="M114.614,51.514A35.22,35.22,0,0,1,79.4,16.3H96.683a17.887,17.887,0,0,0,17.931,17.931Z" transform="translate(-79.4 -16.3)"/></g><path class="a" d="M72.183,35.214H54.9A35.22,35.22,0,0,1,90.114,0V17.283A17.887,17.887,0,0,0,72.183,35.214Z" transform="translate(-54.9)"/><g transform="translate(34.998)"><path class="a" d="M106.314,35.214H89.031A17.887,17.887,0,0,0,71.1,17.283V0A35.22,35.22,0,0,1,106.314,35.214Z" transform="translate(-71.1)"/></g></g><g transform="translate(177.15)"><path class="a" d="M121.283,35.214H104A35.22,35.22,0,0,1,139.214,0V17.283A17.887,17.887,0,0,0,121.283,35.214Z" transform="translate(-104)"/><g transform="translate(34.998)"><path class="a" d="M155.414,35.214H138.131A17.887,17.887,0,0,0,120.2,17.283V0A35.22,35.22,0,0,1,155.414,35.214Z" transform="translate(-120.2)"/></g><g transform="translate(52.929 35.214)"><path class="a" d="M163.714,51.514A35.22,35.22,0,0,1,128.5,16.3h17.283a17.887,17.887,0,0,0,17.931,17.931Z" transform="translate(-128.5 -16.3)"/></g></g></g><g transform="translate(38.887)"><circle class="a" cx="8.641" cy="8.641" r="8.641"/></g><circle class="a" cx="8.641" cy="8.641" r="8.641"/><g transform="translate(304.179 53.145)"><circle class="a" cx="8.641" cy="8.641" r="8.641"/></g></svg>