<svg xmlns="http://www.w3.org/2000/svg" viewBox="0 0 116.063 25.428"><defs><style>.a{fill:#fbcf35;}</style></defs><g transform="translate(17.16)"><path class="a" d="M34.714,12.714h-6.24A6.458,6.458,0,0,0,22,6.24V0A12.716,12.716,0,0,1,34.714,12.714Z" transform="translate(-22)"/><g transform="translate(6.474 12.714)"><g transform="translate(12.714)"><path class="a" d="M46.6,29.014v-6.24A6.458,6.458,0,0,0,53.074,16.3h6.24A12.716,12.716,0,0,1,46.6,29.014Z" transform="translate(-46.6 -16.3)"/></g><path class="a" d="M43.014,29.014A12.716,12.716,0,0,1,30.3,16.3h6.24a6.458,6.458,0,0,0,6.474,6.474Z" transform="translate(-30.3 -16.3)"/></g><g transform="translate(25.662)"><g transform="translate(19.11 12.714)"><g transform="translate(12.714)"><path class="a" d="M95.7,29.014v-6.24a6.458,6.458,0,0,0,6.474-6.474h6.24A12.716,12.716,0,0,1,95.7,29.014Z" transform="translate(-95.7 -16.3)"/></g><path class="a" d="M92.114,29.014A12.716,12.716,0,0,1,79.4,16.3h6.24a6.458,6.458,0,0,0,6.474,6.474Z" transform="translate(-79.4 -16.3)"/></g><path class="a" d="M61.14,12.714H54.9A12.716,12.716,0,0,1,67.614,0V6.24A6.458,6.458,0,0,0,61.14,12.714Z" transform="translate(-54.9)"/><g transform="translate(12.636)"><path class="a" d="M83.814,12.714h-6.24A6.458,6.458,0,0,0,71.1,6.24V0A12.716,12.716,0,0,1,83.814,12.714Z" transform="translate(-71.1)"/></g></g><g transform="translate(63.96)"><path class="a" d="M110.24,12.714H104A12.716,12.716,0,0,1,116.714,0V6.24A6.458,6.458,0,0,0,110.24,12.714Z" transform="translate(-104)"/><g transform="translate(12.636)"><path class="a" d="M132.914,12.714h-6.24A6.458,6.458,0,0,0,120.2,6.24V0A12.716,12.716,0,0,1,132.914,12.714Z" transform="translate(-120.2)"/></g><g transform="translate(19.11 12.714)"><path class="a" d="M141.214,29.014A12.716,12.716,0,0,1,128.5,16.3h6.24a6.458,6.458,0,0,0,6.474,6.474Z" transform="translate(-128.5 -16.3)"/></g></g></g><g transform="translate(14.04)"><circle class="a" cx="3.12" cy="3.12" r="3.12"/></g><circle class="a" cx="3.12" cy="3.12" r="3.12"/><g transform="translate(109.823 19.188)"><circle class="a" cx="3.12" cy="3.12" r="3.12"/></g></svg>