<svg xmlns="http://www.w3.org/2000/svg" viewBox="0 0 214.488 225"><defs><style>.a{fill:#fbcf35;}.b{fill:#eb6582;}.c{fill:#76ba55;}</style></defs><g transform="translate(-0.022 -0.049)"><g transform="translate(0.022 0.049)"><g transform="translate(17.029 47.167)"><circle class="a" cx="88.083" cy="88.083" r="88.083"/></g><g transform="translate(100.323 119.217)"><path class="b" d="M57.571,157.461h0c-5.206,0-9.371-5.206-9.371-11.661V59.382L74.854,57.3l8.329,71.633L67.149,146.008C67.149,152.255,62.776,157.461,57.571,157.461Z" transform="translate(-48.2 -57.3)"/></g><g transform="translate(4.578 51.54)"><path class="c" d="M3.843,49.58a1.649,1.649,0,0,1-1.249-2.707,63,63,0,0,1,95.788,0,1.649,1.649,0,0,1-1.249,2.707Z" transform="translate(-2.221 -24.8)"/></g><g transform="translate(0 46.959)"><path d="M99.3,56.542H6.223A6.271,6.271,0,0,1,.6,53a6.469,6.469,0,0,1,.833-6.664,67.139,67.139,0,0,1,102.452,0A6.413,6.413,0,0,1,104.718,53,5.46,5.46,0,0,1,99.3,56.542ZM13.095,47.38H92.224a57.924,57.924,0,0,0-79.129,0Z" transform="translate(-0.022 -22.6)"/></g><g transform="translate(60.157 4.565)"><path class="c" d="M29.513,5.7a1.926,1.926,0,0,1,1.249-3.332A57.274,57.274,0,0,1,75.116,19.23,58.224,58.224,0,0,1,91.983,63.585c-.208,1.666-2.291,2.5-3.332,1.249Z" transform="translate(-28.911 -2.241)"/></g><g transform="translate(55.676)"><path d="M92.23,72.2a6.46,6.46,0,0,1-4.581-1.874L28.718,11.4a6.4,6.4,0,0,1-1.458-7.08A6.066,6.066,0,0,1,33.091.155a62.245,62.245,0,0,1,65.8,66.011A7.21,7.21,0,0,1,94.729,72C93.9,72,93.063,72.2,92.23,72.2ZM39.547,9.109,89.731,59.294A53.47,53.47,0,0,0,74.322,24.519,54.512,54.512,0,0,0,39.547,9.109Z" transform="translate(-26.759 -0.049)"/></g><g transform="translate(123.367 15.445)"><path class="c" d="M99.734,9.827A1.373,1.373,0,0,0,98.9,7.536,37.236,37.236,0,0,0,59.336,47.1a1.351,1.351,0,0,0,2.291.833Z" transform="translate(-59.266 -7.466)"/></g><g transform="translate(119.163 49.08)"><path class="c" d="M145.648,53.566a1.513,1.513,0,0,0,1.458-2.291,59.075,59.075,0,0,0-89.333-12.7,1.572,1.572,0,0,0,.833,2.707Z" transform="translate(-57.248 -23.619)"/></g><g transform="translate(99.49 112.761)"><path d="M76.745,63.154l-27.279,7.5L47.8,61.7l27.279-7.5Z" transform="translate(-47.8 -54.2)"/></g><g transform="translate(101.572 141.498)"><path d="M82.534,76.954,50.466,85.7,48.8,76.746,80.868,68Z" transform="translate(-48.8 -68)"/></g><g transform="translate(102.666 172.422)"><rect width="35.608" height="9.162" transform="translate(0 7.944) rotate(-12.891)"/></g><g transform="translate(95.95 74.863)"><rect width="9.162" height="135.769"/></g><g transform="translate(113.747 43.809)"><path d="M147.631,61.511,60.588,49.226a7.321,7.321,0,0,1-5.622-4.789,6.661,6.661,0,0,1,2.082-7.08A64.428,64.428,0,0,1,154.294,51.1a6.62,6.62,0,0,1,0,7.288A6.987,6.987,0,0,1,147.631,61.511ZM71,39.855l69.134,9.787a53.674,53.674,0,0,0-32.693-17.7A55.894,55.894,0,0,0,71,39.855Z" transform="translate(-54.647 -21.087)"/></g><g transform="translate(118.797 11.046)"><path d="M62.961,55.427a7.4,7.4,0,0,1-2.082-.416A5.873,5.873,0,0,1,57.131,49.8,42.318,42.318,0,0,1,69.416,17.528,41.692,41.692,0,0,1,101.485,5.45,6.226,6.226,0,0,1,106.69,9.2a6.248,6.248,0,0,1-1.249,6.247L67.126,53.553A5.549,5.549,0,0,1,62.961,55.427Zm29.778-40.4a32.525,32.525,0,0,0-16.867,8.954A33.34,33.34,0,0,0,66.918,40.85Z" transform="translate(-57.072 -5.353)"/></g><g transform="translate(42.225 190.849)"><path d="M37.375,108.775H26.339a6.043,6.043,0,0,0-6.039-6.039V91.7A17.019,17.019,0,0,1,37.375,108.775Z" transform="translate(-20.3 -91.7)"/><g transform="translate(6.039 17.075)"><g transform="translate(17.075)"><path d="M31.4,116.975V105.939A6.043,6.043,0,0,0,37.439,99.9H48.475A17.152,17.152,0,0,1,31.4,116.975Z" transform="translate(-31.4 -99.9)"/></g><g transform="translate(0 0)"><path d="M40.275,116.975A17.152,17.152,0,0,1,23.2,99.9H34.236a6.043,6.043,0,0,0,6.039,6.039Z" transform="translate(-23.2 -99.9)"/></g></g><g transform="translate(29.153)"><g transform="translate(23.322 17.075)"><g transform="translate(17.075)"><path d="M53.7,116.975V105.939A6.043,6.043,0,0,0,59.739,99.9H70.775A17.152,17.152,0,0,1,53.7,116.975Z" transform="translate(-53.7 -99.9)"/></g><g transform="translate(0 0)"><path d="M62.575,116.975A17.152,17.152,0,0,1,45.5,99.9H56.536a6.043,6.043,0,0,0,6.039,6.039Z" transform="translate(-45.5 -99.9)"/></g></g><g transform="translate(0 0)"><path d="M45.336,108.775H34.3A17.152,17.152,0,0,1,51.375,91.7v11.036A5.914,5.914,0,0,0,45.336,108.775Z" transform="translate(-34.3 -91.7)"/></g><g transform="translate(17.075)"><path d="M59.575,108.775H48.539a6.043,6.043,0,0,0-6.039-6.039V91.7A16.889,16.889,0,0,1,59.575,108.775Z" transform="translate(-42.5 -91.7)"/></g></g><g transform="translate(75.589)"><g transform="translate(0 0)"><path d="M67.636,108.775H56.6A17.152,17.152,0,0,1,73.675,91.7v11.036A5.914,5.914,0,0,0,67.636,108.775Z" transform="translate(-56.6 -91.7)"/></g><g transform="translate(17.075)"><path d="M81.875,108.775H70.839a6.043,6.043,0,0,0-6.039-6.039V91.7A17.019,17.019,0,0,1,81.875,108.775Z" transform="translate(-64.8 -91.7)"/></g><g transform="translate(23.322 17.075)"><path d="M84.875,116.975A17.152,17.152,0,0,1,67.8,99.9H78.628a6.043,6.043,0,0,0,6.039,6.039v11.036Z" transform="translate(-67.8 -99.9)"/></g></g></g><g transform="translate(36.395 190.641)"><circle cx="5.622" cy="5.622" r="5.622"/></g><g transform="translate(17.654 190.641)"><circle cx="5.622" cy="5.622" r="5.622"/></g><g transform="translate(152.59 213.755)"><circle cx="5.622" cy="5.622" r="5.622"/></g></g><g transform="translate(122.626 65.957)"><path d="M72.852,164.346,69.52,153.518a215.744,215.744,0,0,1-8.954-56.432L58.9,31.908,69.312,31.7l1.666,65.178A205.21,205.21,0,0,0,79.515,150.6l3.332,11.036Z" transform="translate(-58.9 -31.7)"/></g><g transform="translate(123.459 71.996)"><circle class="c" cx="16.867" cy="16.867" r="16.867"/></g><g transform="translate(118.67 67.415)"><path d="M78.656,75.3A21.449,21.449,0,1,1,99.9,53.848,21.374,21.374,0,0,1,78.656,75.3Zm0-33.734A12.308,12.308,0,0,0,66.371,53.848,12.445,12.445,0,0,0,78.656,66.134,12.308,12.308,0,0,0,90.942,53.848,12.445,12.445,0,0,0,78.656,41.562Z" transform="translate(-57 -32.4)"/></g><g transform="translate(74.941 71.996)"><circle class="c" cx="16.867" cy="16.867" r="16.867"/></g><g transform="translate(70.359 67.415)"><path d="M55.248,75.3A21.448,21.448,0,1,1,76.7,53.848,21.418,21.418,0,0,1,55.248,75.3Zm0-33.734A12.308,12.308,0,0,0,42.962,53.848,12.445,12.445,0,0,0,55.248,66.134a12.286,12.286,0,1,0,0-24.572Z" transform="translate(-33.8 -32.4)"/></g></g></svg>